<?xml version="1.0" encoding="UTF-8"?>
<svg id="Modalità_Isolamento" xmlns="http://www.w3.org/2000/svg" version="1.1" viewBox="0 0 283.46 275.68">
  <!-- Generator: Adobe Illustrator 30.3.0, SVG Export Plug-In . SVG Version: 2.1.3 Build 182)  -->
  <defs>
    <style>
      .st0 {
        fill: #eba402;
      }

      .st1 {
        fill: #4921a0;
      }
    </style>
  </defs>
  <rect class="st1" width="283.46" height="275.68"/>
  <path class="st0" d="M180.21,186.06c-24.12,7.78-55-4.36-94.68,30.25-3.92,3.41-7.92,7.29-12.01,11.68l29.27-40.73,48-66.79s14.55-5.45,26.75-.04l-56.6,59.75c20.66-5.18,33.74,1.74,55.1-5.84,13.96-4.95,22.94-20.65,21.26-34.3-2.06-16.74-18.74-31.37-42.29-25.44-1.89-24.22-21.06-35.36-37.59-31.98-13.47,2.76-25.49,16.28-25.73,31.08-.32,19.05,10.9,31.22,21.65,32.65l-18.12,34.14c.77-26.01-15.73-49.15-15.95-67-.25-20.12,16-39.02,35.66-43.05,11.89-2.43,24.34.41,34.16,7.81,5.51,4.15,9.91,9.51,13.03,15.77l27.5-38.26c1.68-2.35,1.69-5.39.24-7.69l.29-.4,8.56,6.15,8.55,6.15-.29.4c-2.65-.64-5.53.34-7.22,2.68l-27.49,38.26c6.92.96,13.4,3.42,19.09,7.33,10.15,6.94,16.81,17.84,18.29,29.88,2.46,19.92-10.29,41.35-29.43,47.53Z"/>
</svg>